 <svg  version="1.0" xmlns="http://www.w3.org/2000/svg"  width="300.000000pt" height="71.000000pt" viewBox="0 0 300.000000 71.000000"  preserveAspectRatio="xMidYMid meet">  <g transform="translate(0.000000,71.000000) scale(0.100000,-0.100000)" fill="#3b7d3c" stroke="none"> <path d="M2194 523 c0 -38 -12 -71 -52 -153 -51 -101 -52 -103 -45 -55 4 28 8 81 8 120 0 66 -2 70 -27 82 -53 26 -99 -20 -84 -82 4 -14 13 -25 21 -25 18 0 19 12 3 28 -9 9 -9 18 0 37 14 31 48 33 55 4 5 -19 -6 -175 -18 -246 -5 -28 -3 -33 13 -33 14 0 34 31 80 123 70 140 88 197 72 227 -17 32 -26 23 -26 -27z"/> <path d="M222 514 c-16 -16 -35 -50 -42 -76 -13 -45 -17 -48 -47 -48 -22 0 -37 7 -45 20 -16 25 -28 26 -28 0 0 -24 28 -40 70 -40 25 0 30 -3 26 -17 -3 -10 -10 -37 -16 -61 -9 -34 -15 -42 -29 -37 -24 7 -56 -18 -48 -39 7 -19 57 -22 74 -5 9 9 20 9 44 0 42 -14 102 -14 117 1 7 7 12 23 12 38 l-1 25 -23 -29 c-24 -28 -24 -28 -75 -15 -47 12 -64 30 -42 43 5 4 12 25 16 47 6 32 18 52 56 88 58 53 68 93 32 118 -21 14 -24 13 -51 -13z m48 -18 c0 -17 -42 -78 -57 -83 -10 -4 -10 3 1 29 7 18 16 41 19 51 7 20 37 23 37 3z m-155 -266 c3 -5 -1 -10 -10 -10 -9 0 -13 5 -10 10 3 6 8 10 10 10 2 0 7 -4 10 -10z"/> <path d="M665 510 c-15 -16 -17 -26 -9 -48 12 -35 30 -30 26 9 -4 33 19 49 43 29 20 -17 21 -110 1 -110 -8 0 -24 -9 -37 -21 -22 -19 -22 -20 -4 -16 11 3 28 8 37 12 31 12 -11 -71 -60 -121 -39 -39 -41 -44 -21 -44 29 0 82 57 105 114 13 30 25 46 37 46 16 0 17 -8 11 -80 -7 -77 -6 -80 15 -80 19 0 21 5 21 70 0 62 2 70 19 70 30 0 51 11 51 26 0 8 -4 14 -10 14 -5 0 -10 -4 -10 -10 0 -5 -9 -10 -21 -10 -16 0 -19 4 -14 23 15 49 58 110 86 121 37 13 38 30 2 22 -45 -11 -75 -39 -102 -94 -33 -67 -57 -67 -53 0 3 40 0 51 -22 73 -30 30 -66 32 -91 5z"/> <path d="M2668 507 c-13 -12 -33 -44 -44 -70 -15 -37 -24 -47 -42 -47 -30 0 -82 -51 -82 -80 0 -27 -37 -80 -56 -80 -20 0 -18 40 6 102 11 28 17 54 14 57 -2 3 -20 4 -39 3 -31 -2 -35 0 -35 21 0 38 -25 53 -55 33 -30 -20 -32 -42 -5 -71 18 -19 19 -25 7 -58 -15 -44 -62 -97 -86 -97 -24 0 -41 20 -41 47 0 17 6 23 20 23 30 0 72 46 68 73 -6 46 -77 26 -107 -31 -20 -38 -18 -102 4 -118 54 -40 128 0 166 91 15 36 29 55 40 55 15 0 15 -4 1 -54 -14 -50 -14 -57 2 -80 20 -32 59 -34 80 -5 l14 21 11 -21 c15 -27 54 -27 79 -1 l19 20 18 -20 c22 -24 52 -26 76 -4 17 15 19 15 34 0 9 -9 32 -16 52 -16 27 0 43 8 72 37 23 23 31 38 23 40 -7 3 -25 -9 -41 -26 -34 -36 -66 -40 -81 -10 -13 24 -7 49 13 49 29 0 67 41 67 71 0 25 -4 29 -28 29 -35 0 -79 -44 -88 -88 -8 -39 -47 -84 -68 -76 -29 11 -26 38 9 104 42 82 67 169 53 188 -14 17 -21 15 -50 -11z m1 -112 c-17 -42 -34 -74 -37 -71 -7 7 17 91 42 146 35 79 31 11 -5 -75z m-309 18 c0 -20 -3 -24 -11 -16 -7 7 -9 19 -6 27 10 24 17 19 17 -11z m-80 -51 c0 -12 -39 -52 -50 -52 -14 0 -12 12 6 38 15 21 44 31 44 14z m320 -44 c0 -55 -28 -102 -56 -91 -37 14 7 142 49 143 4 0 7 -23 7 -52z m220 42 c0 -13 -37 -50 -50 -50 -7 0 -7 8 1 23 17 32 49 50 49 27z"/> <path d="M934 449 c-7 -12 15 -31 28 -23 4 3 8 12 8 20 0 17 -26 19 -36 3z"/> <path d="M1540 440 c-26 -26 -25 -36 4 -65 l24 -24 -23 -50 c-36 -78 -104 -106 -118 -49 -7 27 -1 38 22 38 16 0 49 29 65 57 11 21 -5 43 -33 43 -35 0 -67 -34 -87 -92 -8 -25 -24 -54 -34 -63 -18 -16 -20 -16 -26 -1 -6 17 12 108 28 139 8 16 6 18 -12 15 -18 -2 -26 -16 -41 -63 -25 -82 -70 -130 -85 -91 -5 13 11 111 23 143 3 7 -2 13 -11 13 -9 0 -18 -6 -21 -12 -2 -7 -11 -38 -19 -68 -14 -51 -55 -110 -75 -110 -9 0 30 158 44 180 3 5 -3 10 -14 10 -12 0 -21 -5 -21 -12 0 -9 -3 -9 -12 0 -33 33 -100 -10 -118 -77 -14 -53 -44 -90 -61 -74 -11 12 -5 63 17 141 5 17 2 22 -13 22 -32 0 -56 -127 -33 -171 14 -26 55 -24 74 3 13 19 16 19 22 5 8 -22 39 -30 64 -17 13 7 20 7 20 0 0 -5 -17 -17 -37 -25 -67 -28 -93 -71 -61 -103 32 -32 74 -4 106 71 6 15 18 27 25 27 8 0 26 11 41 25 24 22 29 24 42 10 21 -21 60 -19 77 5 13 19 13 19 30 0 20 -24 40 -25 62 -4 15 15 17 15 34 0 10 -9 34 -16 54 -16 46 0 90 43 114 111 13 35 23 49 36 49 14 0 17 -4 12 -17 -15 -36 -18 -113 -5 -128 17 -21 54 -19 75 5 l18 20 14 -20 c17 -24 46 -26 67 -4 15 14 17 14 32 0 28 -28 54 -17 88 38 28 44 4 53 -25 9 -13 -21 -29 -37 -34 -35 -13 4 -8 73 9 123 13 36 12 39 -5 39 -11 0 -19 -5 -19 -12 0 -9 -3 -9 -12 0 -32 32 -99 -11 -114 -73 -10 -44 -34 -75 -55 -75 -25 0 -24 25 2 95 12 31 18 59 14 63 -3 3 -22 5 -41 3 -28 -2 -33 0 -28 14 6 15 -21 55 -38 55 -4 0 -17 -9 -28 -20z m40 -31 c0 -10 -4 -19 -10 -19 -5 0 -10 12 -10 26 0 14 4 23 10 19 6 -3 10 -15 10 -26z m-472 -71 c7 -56 -43 -127 -70 -100 -15 15 0 86 24 111 24 27 42 23 46 -11z m382 18 c0 -15 -36 -46 -53 -46 -4 0 -2 10 4 23 19 36 49 50 49 23z m328 -18 c2 -14 -4 -42 -12 -62 -27 -64 -71 -57 -59 9 15 77 64 114 71 53z m-768 -212 c-23 -39 -35 -44 -43 -21 -6 14 50 71 60 61 3 -3 -5 -21 -17 -40z"/> <path d="M361 362 c-34 -34 -47 -92 -29 -130 16 -32 52 -40 77 -18 16 15 19 15 31 1 25 -30 60 -14 89 43 22 42 -1 45 -26 3 -41 -69 -58 -24 -28 75 8 27 15 50 15 52 0 9 -39 0 -43 -10 -4 -10 -6 -10 -6 0 -2 22 -52 13 -80 -16z m69 -38 c0 -55 -42 -119 -64 -97 -19 19 3 109 31 130 23 17 33 7 33 -33z"/> </g> </svg> 